HIERARCHY
ROOT Hips
{
	OFFSET 0.000000 0.000000 0.000000 
	CHANNELS 6 Xposition Yposition Zposition Yrotation Zrotation Xrotation 
	JOINT Lumbar
	{
		OFFSET 0.000000 0.000000 0.000000 
		CHANNELS 3 Zrotation Xrotation Yrotation
		JOINT Neck
		{
			OFFSET 0.000000 0.445665 0.000000 
			CHANNELS 3 Zrotation Xrotation Yrotation
			End Site
			{
				OFFSET 0.000000 0.227535 0.000000 
			}
		}
		JOINT RightShoulder
		{
			OFFSET 0.019635 0.377685 0.194865 
			CHANNELS 3 Zrotation Xrotation Yrotation
			JOINT RightElbow
			{
				OFFSET 0.000000 -0.243375 0.000000 
				CHANNELS 2 Zrotation Yrotation
				JOINT RightWrist
				{
					OFFSET 0.000000 -0.264825 0.000000 
					CHANNELS 2 Zrotation Xrotation
					End Site
					{
						OFFSET 0.006600 -0.176220 0.000990 
					}
				}
			}
		}
		JOINT LeftShoulder
		{
			OFFSET 0.019635 0.377685 -0.194865 
			CHANNELS 3 Zrotation Xrotation Yrotation
			JOINT LeftElbow
			{
				OFFSET 0.000000 -0.243375 0.000000 
				CHANNELS 2 Zrotation Yrotation
				JOINT LeftWrist
				{
					OFFSET 0.000000 -0.264825 0.000000 
					CHANNELS 2 Zrotation Xrotation
					End Site
					{
						OFFSET 0.006600 -0.176220 -0.000990 
					}
				}
			}
		}
	}
	JOINT RightHip
	{
		OFFSET 0.052140 -0.069960 0.075570 
		CHANNELS 3 Zrotation Xrotation Yrotation
		JOINT RightKnee
		{
			OFFSET 0.000000 -0.402270 0.000000 
			CHANNELS 1 Zrotation
			JOINT RightAnkle
			{
				OFFSET 0.000000 -0.404085 0.000000 
				CHANNELS 3 Zrotation Xrotation Yrotation
				End Site
				{
					OFFSET 0.204105 -0.089430 0.008415 
				}
			}
		}
	}
	JOINT LeftHip
	{
		OFFSET 0.052140 -0.069960 -0.075570 
		CHANNELS 3 Zrotation Xrotation Yrotation
		JOINT LeftKnee
		{
			OFFSET 0.000000 -0.402270 0.000000 
			CHANNELS 1 Zrotation
			JOINT LeftAnkle
			{
				OFFSET 0.000000 -0.404085 0.000000 
				CHANNELS 3 Zrotation Xrotation Yrotation
				End Site
				{
					OFFSET 0.204105 -0.089430 -0.008415 
				}
			}
		}
	}
}
MOTION
Frames: 16
Frame Time: 0.02
-0.00023 0.00111 -0.00702 10.22814 -22.90584 -5.78547 44.867 2.85322 -8.09903 -14.27578 8.34335 -1.2892 -13.81076 -15.1439 -0.58113 32.2048 86.6296 4.75709 -0.50331 -31.35978 15.12566 -14.5956 47.47616 -52.53494 -2.16887 8.14345 35.95879 -5.1108 -5.81556 -18.21147 -7.65715 -2.52629 -3.49311 38.9785 8.30613 3.43131 -27.55784 -8.77092 3.91245 4.21654
-0.00318 0.00025 -0.0089 9.6561 -22.97135 -5.75009 44.70254 2.57369 -8.44556 -14.40732 8.25037 -1.28999 -14.28516 -14.88914 -0.31186 32.8701 86.71889 4.89556 -0.48667 -31.32406 15.40133 -13.38247 47.15906 -58.88772 -0.25415 6.90794 36.71534 -5.29003 -6.01176 -18.79117 -7.74082 -2.45942 -3.46639 39.09699 8.26933 4.10857 -27.5534 -8.70193 3.88509 4.20317
-0.00612 -0.0006 -0.01077 9.08524 -23.03654 -5.71502 44.53843 2.29456 -8.79131 -14.53861 8.15753 -1.29079 -14.75909 -14.63462 -0.04351 33.53295 86.80793 5.0337 -0.47005 -31.28757 15.67699 -12.17188 46.84139 -65.21565 1.65342 5.67717 37.47057 -5.46842 -6.20698 -19.37058 -7.82436 -2.39281 -3.43979 39.21494 8.23294 4.78442 -27.54893 -8.63309 3.85779 4.18982
-0.00906 -0.00145 -0.01264 8.51486 -23.10182 -5.67977 44.37443 2.01581 -9.13683 -14.66977 8.0648 -1.29159 -15.23217 -14.38055 0.22495 34.19617 86.89694 5.17176 -0.45345 -31.25184 15.95196 -10.96231 46.52502 -71.54783 3.56201 4.44565 38.22496 -5.64704 -6.40244 -19.94876 -7.9078 -2.32616 -3.41316 39.33302 8.19629 5.45973 -27.5445 -8.5643 3.83051 4.17648
-0.01201 -0.0023 -0.01452 7.94356 -23.16748 -5.64416 44.21019 1.73686 -9.48299 -14.80112 7.97199 -1.29238 -15.70543 -14.12646 0.49429 34.86192 86.98624 5.31012 -0.43686 -31.21715 16.22658 -9.7506 46.20981 -77.90729 5.47833 3.20895 38.98027 -5.82662 -6.59924 -20.5266 -7.99133 -2.25922 -3.38641 39.45174 8.15913 6.13614 -27.54011 -8.49539 3.80318 4.16312
-0.01494 -0.00315 -0.01638 7.37366 -23.23171 -5.61024 44.04637 1.45737 -9.82785 -14.93226 7.87909 -1.29318 -16.18074 -13.87105 0.76047 35.51859 87.07476 5.44781 -0.42017 -31.17682 16.50438 -8.54239 45.88701 -84.1689 7.36747 1.99066 39.73529 -6.00251 -6.79126 -21.1092 -8.07485 -2.19327 -3.36011 39.56809 8.12436 6.81072 -27.53547 -8.42671 3.77595 4.14979
-0.01791 -0.00401 -0.01826 6.80154 -23.29867 -5.57291 43.88179 1.17925 -10.17499 -15.06371 7.78646 -1.29397 -16.65124 -13.61856 1.03291 36.19296 87.16462 5.58667 -0.4037 -31.14805 16.77556 -7.32868 45.57982 -90.6188 9.30882 0.73698 40.49006 -6.18557 -6.9921 -21.68178 -8.15834 -2.12545 -3.33294 39.68899 8.08481 7.48841 -27.53133 -8.35761 3.74854 4.13642
-0.02084 -0.00486 -0.02013 6.23152 -23.36325 -5.5388 43.71807 0.89991 -10.51995 -15.19484 7.69361 -1.29477 -17.12645 -13.36342 1.29922 36.85073 87.25347 5.7245 -0.38702 -31.10832 17.05271 -6.11965 45.25828 -96.89817 11.20273 -0.48464 41.24505 -6.36212 -7.18585 -22.26324 -8.24179 -2.0593 -3.30655 39.80584 8.04968 8.16288 -27.52674 -8.28895 3.72132 4.1231
-0.02373 -0.00569 -0.02196 5.66349 -23.4244 -5.50833 43.55469 0.61869 -10.86278 -15.32577 7.60029 -1.29559 -17.60673 -13.10467 1.55959 37.48954 87.34022 5.86094 -0.3701 -31.05623 17.33797 -4.91719 44.91861 -102.95848 13.03644 -1.66511 42.00086 -6.53035 -7.36682 -22.85748 -8.32549 -1.99537 -3.28122 39.91721 8.01994 8.83523 -27.52159 -8.22057 3.69421 4.10976
-0.02687 -0.00662 -0.02397 5.08226 -23.50371 -5.45602 43.38719 0.34709 -11.21948 -15.45841 7.50908 -1.29631 -18.05581 -12.86554 1.8588 38.24142 87.43647 6.005 -0.35459 -31.07833 17.57905 -3.67941 44.68141 -110.24734 15.20989 -3.07648 42.75367 -6.74534 -7.60894 -23.38402 -8.40867 -1.9192 -3.2501 40.05848 7.95917 9.52529 -27.51963 -8.14982 3.6661 4.09629
-0.02948 -0.00733 -0.0256 4.53011 -23.54571 -5.45035 43.22979 0.05605 -11.5458 -15.58706 7.41381 -1.29724 -18.57186 -12.58583 2.07308 38.75221 87.51433 6.1332 -0.33612 -30.94202 17.91163 -2.51482 44.22941 -114.96463 16.67078 -4.00444 43.51155 -6.86243 -7.73 -24.04948 -8.49237 -1.86854 -3.23101 40.13772 7.96384 10.17434 -27.51095 -8.08454 3.64033 4.08324
-0.03074 -0.00749 -0.02616 4.04776 -23.47587 -5.56929 43.08853 -0.29578 -11.79653 -15.70798 7.30416 -1.29873 -19.26423 -12.18724 2.07676 38.61579 87.5274 6.21558 -0.3094 -30.38205 18.51171 -1.56465 43.17116 -112.38556 16.12203 -3.56152 44.29382 -6.70128 -7.44941 -25.13068 -8.58234 -1.89124 -3.24682 40.0357 8.15006 10.7398 -27.4835 -8.03073 3.61908 4.07026
-0.03146 -0.00744 -0.02633 3.59625 -23.37009 -5.73549 42.95939 -0.6656 -12.01482 -15.82424 7.19114 -1.30041 -20.02499 -11.74963 1.99127 38.23481 87.52443 6.28241 -0.27973 -29.6612 19.20037 -0.68652 41.90114 -107.26732 14.86767 -2.64111 45.07881 -6.44326 -7.05967 -26.34362 -8.67196 -1.93905 -3.27442 39.87298 8.40151 11.25862 -27.44937 -7.98311 3.60053 4.05793
-0.03238 -0.00747 -0.02667 3.13741 -23.28726 -5.88255 42.8325 -1.02253 -12.24354 -15.94063 7.08163 -1.302 -20.75964 -11.33432 1.93155 37.95607 87.53843 6.35795 -0.25153 -29.00641 19.83811 0.23484 40.73795 -103.46936 13.97192 -1.96853 45.85632 -6.23623 -6.76579 -27.47544 -8.75856 -1.97304 -3.29533 39.7458 8.62199 11.78002 -27.41851 -7.93492 3.58194 4.04602
-0.03347 -0.00756 -0.02704 2.65124 -23.1774 -6.02069 42.67361 -1.40003 -12.49248 -16.06569 6.96326 -1.30364 -21.47443 -10.8982 1.93274 37.71352 87.51243 6.42679 -0.22285 -28.38001 20.52211 1.11621 39.52626 -98.96972 12.9153 -1.16602 46.66206 -6.00092 -6.27826 -28.70281 -8.8585 -2.01681 -3.32167 39.58672 8.8487 12.38031 -27.38662 -7.87711 3.55827 4.03104
-0.03409 -0.00746 -0.02725 2.22826 -23.11407 -6.18753 42.58333 -1.73813 -12.689 -16.17123 6.86315 -1.30521 -22.24557 -10.49798 1.78744 37.33873 87.56483 6.50556 -0.19437 -27.65765 21.1294 2.05823 38.36961 -95.3226 12.02557 -0.51947 47.40732 -5.79988 -6.16587 -29.75539 -8.93071 -2.04672 -3.33978 39.47743 9.07729 12.80471 -27.35531 -7.841 3.54594 4.02268
